<svg xmlns="http://www.w3.org/2000/svg" width="96" height="108.031" viewBox="0 0 96 108.031">
  <g id="iconfinder_c_logo_7564189" transform="translate(-49 -25.883)">
    <path id="Path_53" data-name="Path 53" d="M248.779,165.986a8.508,8.508,0,0,0,1.221-4.1V116.065a8.5,8.5,0,0,0-1.221-4.095L202,138.978Z" transform="translate(-105 -59.08)" fill="#00599c"/>
    <path id="Path_54" data-name="Path 54" d="M103.829,251.083l39.686-22.913a8.5,8.5,0,0,0,2.936-3.1L99.672,198.058,52.893,225.066a8.505,8.505,0,0,0,2.936,3.1l39.686,22.913A9.221,9.221,0,0,0,103.829,251.083Z" transform="translate(-2.672 -118.159)" fill="#004482"/>
    <path id="Path_55" data-name="Path 55" d="M143.779,52.89a8.509,8.509,0,0,0-2.936-3.1L101.157,26.873a9.221,9.221,0,0,0-8.314,0L53.157,49.785A9.222,9.222,0,0,0,49,56.985v45.826a8.5,8.5,0,0,0,1.221,4.1L97,79.9Z" transform="translate(0)" fill="#659ad2"/>
    <g id="Group_36" data-name="Group 36" transform="translate(65 47.898)">
      <path id="Path_56" data-name="Path 56" d="M132,160.057a32,32,0,1,1,27.712-48.01l-13.849,8.014a16,16,0,1,0,0,15.992l13.849,8.013A32.115,32.115,0,0,1,132,160.057Z" transform="translate(-100 -96.058)" fill="#fff"/>
    </g>
    <g id="Group_37" data-name="Group 37" transform="translate(118.333 74.565)">
      <path id="Path_57" data-name="Path 57" d="M280.667,184.613h-3.556v-3.555h-3.555v3.555H270v3.555h3.556v3.556h3.555v-3.556h3.556Z" transform="translate(-270 -181.058)" fill="#fff"/>
    </g>
    <g id="Group_38" data-name="Group 38" transform="translate(131.667 74.565)">
      <path id="Path_58" data-name="Path 58" d="M323.167,184.613h-3.556v-3.555h-3.555v3.555H312.5v3.555h3.556v3.556h3.555v-3.556h3.556Z" transform="translate(-312.5 -181.058)" fill="#fff"/>
    </g>
  </g>
</svg>
