<svg xmlns="http://www.w3.org/2000/svg" width="84.971" height="91.755" viewBox="0 0 84.971 91.755">
  <g id="XMLID_4926_" transform="translate(7305.3 3411.5)">
    <g id="XMLID_4921_" transform="translate(-7305.268 -3411.5)">
      <g id="XMLID_4931_" transform="translate(6.849 0)">
        <path id="XMLID_4936_" d="M-6965.3-3386.61h-17.6v-17.69" transform="translate(7035.182 3405.622)" fill="#9eaef4"/>
        <g id="XMLID_4932_">
          <path id="XMLID_4933_" d="M-7196.58-3319.745H-7267.8V-3411.5h54.264l16.957,17.745Zm-68.56-2.679h65.88v-70.266l-15.433-16.149h-50.447Z" transform="translate(7267.801 3411.5)" fill="#9eaef4"/>
        </g>
      </g>
      <g id="XMLID_4927_" transform="translate(14.428 34.151)">
        <path id="XMLID_4928_" d="M-7170.475-3175.43H-7226.5v-49.97h56.025Zm-53.328-2.679h50.667v-44.629H-7223.8Z" transform="translate(7226.5 3225.4)" fill="#9eaef4"/>
      </g>
      <g id="XMLID_4924_" transform="translate(75.58 35.6)">
        <rect id="XMLID_4925_" width="2.661" height="11.157" transform="translate(0 1.755) rotate(-41.27)" fill="#9eaef4"/>
      </g>
      <g id="XMLID_4922_" transform="translate(0 35.651)">
        <rect id="XMLID_4923_" width="11.157" height="2.661" transform="translate(0 8.386) rotate(-48.73)" fill="#9eaef4"/>
      </g>
    </g>
    <path id="XMLID_7465_" d="M-7305.3-3171.7v30.261h84.965V-3171.7Zm29.674,18.773a2.348,2.348,0,0,0,2,.973,2.619,2.619,0,0,0,1.89-.642,2.6,2.6,0,0,0,.642-1.872h1.945l.019.055a3.7,3.7,0,0,1-1.193,2.954,4.68,4.68,0,0,1-3.3,1.12,4.445,4.445,0,0,1-3.432-1.432,5.162,5.162,0,0,1-1.321-3.652v-2.312a5.263,5.263,0,0,1,1.3-3.652,4.369,4.369,0,0,1,3.4-1.431,4.973,4.973,0,0,1,3.376,1.083,3.7,3.7,0,0,1,1.193,2.991l-.018.055h-1.964a2.458,2.458,0,0,0-.661-1.854,2.681,2.681,0,0,0-1.927-.643,2.3,2.3,0,0,0-1.945.973,4.085,4.085,0,0,0-.716,2.478v2.331A4.123,4.123,0,0,0-7275.626-3152.927Zm16.185,1.688a4.94,4.94,0,0,1-3.1.9,5.4,5.4,0,0,1-3.23-.991,3.141,3.141,0,0,1-1.339-2.771l.019-.055h1.945a1.953,1.953,0,0,0,.752,1.652,3.024,3.024,0,0,0,1.835.55,2.655,2.655,0,0,0,1.669-.458,1.434,1.434,0,0,0,.587-1.229,1.637,1.637,0,0,0-.532-1.248,4.9,4.9,0,0,0-1.909-.863,8.073,8.073,0,0,1-3.01-1.413,2.827,2.827,0,0,1-1.064-2.294,2.988,2.988,0,0,1,1.174-2.422,4.635,4.635,0,0,1,2.991-.954,4.564,4.564,0,0,1,3.138,1.046,3.255,3.255,0,0,1,1.138,2.606l-.019.055h-1.945a1.952,1.952,0,0,0-.642-1.523,2.414,2.414,0,0,0-1.688-.569,2.383,2.383,0,0,0-1.578.477,1.591,1.591,0,0,0-.55,1.248,1.412,1.412,0,0,0,.605,1.156,6.956,6.956,0,0,0,2.018.863,7.025,7.025,0,0,1,2.9,1.45,3.049,3.049,0,0,1,.991,2.349A2.776,2.776,0,0,1-7259.441-3151.239Zm10.992,0a4.94,4.94,0,0,1-3.1.9,5.4,5.4,0,0,1-3.23-.991,3.141,3.141,0,0,1-1.339-2.771l.018-.055h1.946a1.953,1.953,0,0,0,.752,1.652,3.024,3.024,0,0,0,1.835.55,2.657,2.657,0,0,0,1.67-.458,1.434,1.434,0,0,0,.587-1.229,1.636,1.636,0,0,0-.532-1.248,4.9,4.9,0,0,0-1.909-.863,8.073,8.073,0,0,1-3.01-1.413,2.828,2.828,0,0,1-1.064-2.294,2.988,2.988,0,0,1,1.175-2.422,4.635,4.635,0,0,1,2.991-.954,4.566,4.566,0,0,1,3.138,1.046,3.252,3.252,0,0,1,1.137,2.606l-.018.055h-1.945a1.954,1.954,0,0,0-.642-1.523,2.413,2.413,0,0,0-1.688-.569,2.384,2.384,0,0,0-1.578.477,1.589,1.589,0,0,0-.55,1.248,1.412,1.412,0,0,0,.605,1.156,6.96,6.96,0,0,0,2.019.863,7.026,7.026,0,0,1,2.9,1.45,3.049,3.049,0,0,1,.991,2.349A2.776,2.776,0,0,1-7248.449-3151.239Z" transform="translate(0 -195.794)" fill="#9eaef4"/>
  </g>
</svg>
