<svg xmlns="http://www.w3.org/2000/svg" width="73.133" height="99.726" viewBox="0 0 73.133 99.726">
  <g id="html" transform="translate(646 1127)">
    <g id="Group_28" data-name="Group 28" transform="translate(-646 -1127)">
      <path id="Path_23" data-name="Path 23" d="M99.836,130.594a3.328,3.328,0,0,0,3.324-3.324V107.324A3.328,3.328,0,0,0,99.836,104H43.324A3.328,3.328,0,0,0,40,107.324v19.945a3.328,3.328,0,0,0,3.324,3.324ZM87.455,110.78H90.1v10.775h6.571v2.205H87.455Zm-15.429-.107h3.955l2.375,8.927,2.348-8.927h3.965v13.089H82.214v-10.3l-2.6,10.3H77.072l-2.589-10.3v10.3H72.028Zm-12.161,0h10.4v2.214H66.391V123.76H63.749V112.887H59.865Zm-12.349,0h2.642v5.153h5.178v-5.153h2.642v13.089H55.337v-5.724H50.159v5.722H47.516Z" transform="translate(-40 -64.11)" fill="#d34d4d"/>
      <path id="Path_24" data-name="Path 24" d="M111.16,8H54.648A6.656,6.656,0,0,0,48,14.648V44.566h3.324V14.648a3.328,3.328,0,0,1,3.324-3.324H111.16a3.328,3.328,0,0,1,3.324,3.324v69.4a3.366,3.366,0,0,1-.027.4H99.525a4.992,4.992,0,0,0-4.986,4.986v14.932a3.368,3.368,0,0,1-.4.027H54.648a3.328,3.328,0,0,1-3.324-3.324V77.808H48v23.269a6.656,6.656,0,0,0,6.648,6.648H94.135a6.6,6.6,0,0,0,4.7-1.948l17.024-17.024a6.6,6.6,0,0,0,1.948-4.7v-69.4A6.656,6.656,0,0,0,111.16,8Z" transform="translate(-44.676 -8)" fill="#d34d4d"/>
    </g>
  </g>
</svg>
