<svg xmlns="http://www.w3.org/2000/svg" width="118.942" height="161.347" viewBox="0 0 118.942 161.347">
  <g id="_x31_81-java" transform="translate(-86.448 -26)">
    <g id="Group_35" data-name="Group 35" transform="translate(86.447 26)">
      <path id="Path_45" data-name="Path 45" d="M196.9,288.929a50.964,50.964,0,0,1,7.374-3.939s-12.2,2.206-24.327,3.215c-14.842,1.229-30.787,1.481-38.792.409-18.939-2.521,10.4-9.486,10.4-9.486s-11.376-.756-25.4,5.987C109.615,293.12,167.125,296.775,196.9,288.929Z" transform="translate(-110.325 -190.326)" fill="#5382a1"/>
      <path id="Path_46" data-name="Path 46" d="M216.994,114.487c-5.987-13.456-26.187-25.273,0-45.945C249.672,42.765,232.907,26,232.907,26c6.775,26.628-23.823,34.7-34.885,51.24C190.491,88.552,201.71,100.685,216.994,114.487Z" transform="translate(-157.326 -26)" fill="#f8981d"/>
      <path id="Path_47" data-name="Path 47" d="M292.939,119.975c.032,0-55.21,13.8-28.834,44.18,7.784,8.95-2.048,17.017-2.048,17.017s19.759-10.21,10.683-22.973C264.263,146.288,257.771,140.364,292.939,119.975Z" transform="translate(-197.159 -87.013)" fill="#f8981d"/>
      <path id="Path_48" data-name="Path 48" d="M352.872,305.742a3.831,3.831,0,0,1-.63.819c40.43-10.62,25.556-37.469,6.239-30.662a5.456,5.456,0,0,0-2.583,1.985,22.122,22.122,0,0,1,3.467-.946c9.768-2.048,23.792,13.078-6.492,28.8Z" transform="translate(-259.013 -187.538)" fill="#5382a1"/>
      <path id="Path_49" data-name="Path 49" d="M195.18,416.456s4.569,3.75-5.011,6.681c-18.246,5.515-75.882,7.184-91.89.221-5.767-2.49,5.042-5.988,8.445-6.712a22.871,22.871,0,0,1,5.577-.631c-6.4-4.506-41.376,8.855-17.773,12.669,64.349,10.462,117.353-4.7,100.651-12.227Z" transform="translate(-86.447 -278.62)" fill="#5382a1"/>
      <path id="Path_50" data-name="Path 50" d="M181.208,381.776c-24.8,6.933,15.095,21.24,46.67,7.72a58.553,58.553,0,0,1-8.886-4.348c-14.086,2.679-20.609,2.867-33.4,1.418-10.557-1.2-4.38-4.79-4.38-4.79Z" transform="translate(-142.937 -256.986)" fill="#5382a1"/>
      <path id="Path_51" data-name="Path 51" d="M221.009,451.779c-24.8,4.664-55.4,4.129-73.519,1.134,0-.031,3.719,3.057,22.815,4.286,29.054,1.86,73.676-1.04,74.716-14.779,0,0-2.016,5.2-24.013,9.359Z" transform="translate(-126.079 -296.359)" fill="#5382a1"/>
      <path id="Path_52" data-name="Path 52" d="M215.267,335.5c-18.656,3.593-29.464,3.5-43.109,2.08-10.557-1.1-3.656-6.208-3.656-6.208-27.353,9.075,15.189,19.349,53.413,8.162A19.028,19.028,0,0,1,215.267,335.5Z" transform="translate(-134.076 -224.264)" fill="#5382a1"/>
    </g>
  </g>
</svg>
