<svg xmlns="http://www.w3.org/2000/svg" width="82.337" height="93.17" viewBox="0 0 82.337 93.17">
  <g id="iconfinder_file-javascript_7077507" transform="translate(-3.319 -1.256)">
    <path id="Path_25" data-name="Path 25" d="M17.863,43.605a9.1,9.1,0,0,1-3.893-.843,7.488,7.488,0,0,1-2.943-2.428,2.339,2.339,0,0,1-.441-1.284,1.964,1.964,0,0,1,.717-1.544,2.171,2.171,0,0,1,1.415-.627,2.04,2.04,0,0,1,1.087.331,5.414,5.414,0,0,1,.971.772,4.844,4.844,0,0,0,1.452.94,4.6,4.6,0,0,0,1.636.263,4.069,4.069,0,0,0,2.061-.551,4.413,4.413,0,0,0,1.541-1.468,3.633,3.633,0,0,0,.591-1.987V19.741a2.082,2.082,0,0,1,.7-1.6,2.31,2.31,0,0,1,1.617-.646,2.179,2.179,0,0,1,2.281,2.242V35.178a7.766,7.766,0,0,1-1.179,4.153,9.092,9.092,0,0,1-3.15,3.09A8.574,8.574,0,0,1,17.863,43.605Z" transform="translate(11.81 26.396)" fill="#c2ea1b"/>
    <path id="Path_26" data-name="Path 26" d="M18.067,44.126a9.452,9.452,0,0,1-4.038-.874,7.832,7.832,0,0,1-3.066-2.531,2.67,2.67,0,0,1-.5-1.478,2.5,2.5,0,0,1,3.718-2.119,5.816,5.816,0,0,1,1.032.822,4.5,4.5,0,0,0,1.336.864,4.174,4.174,0,0,0,3.413-.263,4.1,4.1,0,0,0,1.428-1.36,3.277,3.277,0,0,0,.538-1.812V19.946a2.407,2.407,0,0,1,.8-1.838,2.649,2.649,0,0,1,1.838-.73,2.5,2.5,0,0,1,2.607,2.57V35.383a8.12,8.12,0,0,1-1.226,4.327,9.483,9.483,0,0,1-3.269,3.2,8.926,8.926,0,0,1-4.613,1.221Zm-5.141-6.734a1.861,1.861,0,0,0-1.2.543,1.641,1.641,0,0,0-.6,1.3,2,2,0,0,0,.386,1.1,7.152,7.152,0,0,0,2.807,2.313,8.8,8.8,0,0,0,3.757.811,8.26,8.26,0,0,0,4.277-1.126,8.821,8.821,0,0,0,3.051-2.98,7.482,7.482,0,0,0,1.129-3.983V19.946a1.838,1.838,0,0,0-1.951-1.914,1.98,1.98,0,0,0-1.4.557,1.762,1.762,0,0,0-.591,1.357V35.381a3.975,3.975,0,0,1-.641,2.166,4.786,4.786,0,0,1-1.657,1.575,4.4,4.4,0,0,1-2.221.6,4.9,4.9,0,0,1-1.754-.3,5.227,5.227,0,0,1-1.554-1,5.154,5.154,0,0,0-.927-.738,1.709,1.709,0,0,0-.911-.291Z" transform="translate(11.609 26.201)" fill="#c2ea1b"/>
    <path id="Path_27" data-name="Path 27" d="M27.877,43.822a15.455,15.455,0,0,1-4.634-.643,11.082,11.082,0,0,1-3.938-2.26A2.864,2.864,0,0,1,18.573,40a2.258,2.258,0,0,1-.263-1.029,2.116,2.116,0,0,1,.606-1.489,2.011,2.011,0,0,1,1.525-.641,1.94,1.94,0,0,1,1.252.441,11.679,11.679,0,0,0,2.772,1.725,8.7,8.7,0,0,0,3.413.591,7.088,7.088,0,0,0,2.5-.425,4.862,4.862,0,0,0,1.838-1.139,2.279,2.279,0,0,0,.7-1.636,2.783,2.783,0,0,0-.662-1.875,5.078,5.078,0,0,0-2.022-1.313,15.708,15.708,0,0,0-3.458-.827,15.563,15.563,0,0,1-3.489-.9,8.178,8.178,0,0,1-2.518-1.544,6.1,6.1,0,0,1-1.525-2.208,7.493,7.493,0,0,1-.525-2.849,6.745,6.745,0,0,1,1.234-4.08,7.687,7.687,0,0,1,3.321-2.557,11.751,11.751,0,0,1,4.629-.885,13.337,13.337,0,0,1,4.429.717A10.239,10.239,0,0,1,35.656,19.9a2.449,2.449,0,0,1,1.069,1.945,2.1,2.1,0,0,1-.627,1.47,1.956,1.956,0,0,1-1.47.662,1.617,1.617,0,0,1-.992-.331,6.705,6.705,0,0,0-1.575-.974,14.274,14.274,0,0,0-2.1-.772A7.613,7.613,0,0,0,27.9,21.59a7.7,7.7,0,0,0-2.662.4A3.631,3.631,0,0,0,23.6,23.1a2.528,2.528,0,0,0-.551,1.62,2.625,2.625,0,0,0,.641,1.817,4.374,4.374,0,0,0,1.856,1.142,21.609,21.609,0,0,0,2.9.753,29.217,29.217,0,0,1,3.878.953A9.1,9.1,0,0,1,35.1,30.8a5.351,5.351,0,0,1,1.654,2.169,8.173,8.173,0,0,1,.551,3.179A6.563,6.563,0,0,1,36,40.262a8.449,8.449,0,0,1-3.471,2.646,11.691,11.691,0,0,1-4.65.914Z" transform="translate(24.366 26.18)" fill="#c2ea1b"/>
    <path id="Path_28" data-name="Path 28" d="M28.07,44.349a15.787,15.787,0,0,1-4.726-.659A11.426,11.426,0,0,1,19.3,41.369a3.185,3.185,0,0,1-.814-1.024,2.586,2.586,0,0,1-.291-1.174,2.457,2.457,0,0,1,.693-1.717,2.347,2.347,0,0,1,1.767-.743,2.271,2.271,0,0,1,1.454.525,11.289,11.289,0,0,0,2.7,1.678,8.377,8.377,0,0,0,3.274.564,6.881,6.881,0,0,0,2.384-.4,4.592,4.592,0,0,0,1.717-1.063,1.938,1.938,0,0,0,.606-1.407,2.444,2.444,0,0,0-.583-1.659,4.783,4.783,0,0,0-1.893-1.213,15.287,15.287,0,0,0-3.382-.806,15.979,15.979,0,0,1-3.568-.922A8.493,8.493,0,0,1,20.732,30.4a6.411,6.411,0,0,1-1.607-2.326,7.861,7.861,0,0,1-.541-2.969,7.073,7.073,0,0,1,1.3-4.271,8.065,8.065,0,0,1,3.463-2.683,12.174,12.174,0,0,1,4.757-.911,13.694,13.694,0,0,1,4.539.738,10.6,10.6,0,0,1,3.426,1.869,2.775,2.775,0,0,1,1.181,2.195,2.426,2.426,0,0,1-.717,1.7,2.281,2.281,0,0,1-1.709.764,1.945,1.945,0,0,1-1.189-.4,6.4,6.4,0,0,0-1.5-.932,14,14,0,0,0-2.048-.753,7.3,7.3,0,0,0-1.969-.3,7.406,7.406,0,0,0-2.549.383,3.313,3.313,0,0,0-1.491,1,2.205,2.205,0,0,0-.48,1.415,2.287,2.287,0,0,0,.557,1.6,4.072,4.072,0,0,0,1.72,1.05,21.17,21.17,0,0,0,2.859.74,31.046,31.046,0,0,1,3.92.964,9.556,9.556,0,0,1,2.888,1.47,5.7,5.7,0,0,1,1.754,2.3,8.511,8.511,0,0,1,.575,3.308,6.923,6.923,0,0,1-1.389,4.316,8.871,8.871,0,0,1-3.6,2.749,12.122,12.122,0,0,1-4.8.935Zm-7.425-6.981a1.693,1.693,0,0,0-1.289.538,1.783,1.783,0,0,0-.525,1.265,1.924,1.924,0,0,0,.223.88,2.557,2.557,0,0,0,.651.817,10.832,10.832,0,0,0,3.82,2.2,15.177,15.177,0,0,0,4.534.627,11.439,11.439,0,0,0,4.518-.89,8.189,8.189,0,0,0,3.342-2.544,6.267,6.267,0,0,0,1.255-3.917,7.847,7.847,0,0,0-.525-3.051,5.03,5.03,0,0,0-1.554-2.04,8.719,8.719,0,0,0-2.675-1.36,29.026,29.026,0,0,0-3.833-.945,21.752,21.752,0,0,1-2.954-.767,4.686,4.686,0,0,1-1.993-1.231,2.954,2.954,0,0,1-.7-2.037,2.851,2.851,0,0,1,.622-1.819,3.92,3.92,0,0,1,1.777-1.208,8.28,8.28,0,0,1,4.928-.1,14.206,14.206,0,0,1,2.142.788A6.962,6.962,0,0,1,34.069,23.6a1.265,1.265,0,0,0,.774.249,1.628,1.628,0,0,0,1.234-.559,1.767,1.767,0,0,0,.525-1.247,2.124,2.124,0,0,0-.943-1.688,9.99,9.99,0,0,0-3.232-1.767,13.017,13.017,0,0,0-4.321-.7,11.494,11.494,0,0,0-4.5.861,7.388,7.388,0,0,0-3.19,2.46,6.448,6.448,0,0,0-1.171,3.888,7.223,7.223,0,0,0,.491,2.725,5.836,5.836,0,0,0,1.447,2.1A7.755,7.755,0,0,0,23.6,31.4a15.227,15.227,0,0,0,3.413.88,16.136,16.136,0,0,1,3.526.845,5.393,5.393,0,0,1,2.153,1.4,3.124,3.124,0,0,1,.74,2.087,2.6,2.6,0,0,1-.788,1.864,5.143,5.143,0,0,1-1.959,1.221,7.485,7.485,0,0,1-2.625.444,9.047,9.047,0,0,1-3.529-.614,12.02,12.02,0,0,1-2.854-1.775A1.612,1.612,0,0,0,20.646,37.368Z" transform="translate(24.173 25.978)" fill="#c2ea1b"/>
    <path id="Path_29" data-name="Path 29" d="M71.868,94.426H17.108A13.807,13.807,0,0,1,3.319,80.637V15.047A13.807,13.807,0,0,1,17.108,1.256h34.97A13.754,13.754,0,0,1,61.855,5.31L81.6,25.039a13.914,13.914,0,0,1,4.056,9.787v45.81A13.807,13.807,0,0,1,71.868,94.426ZM17.108,7.819a7.238,7.238,0,0,0-7.225,7.228v65.59a7.236,7.236,0,0,0,7.225,7.225h54.76a7.236,7.236,0,0,0,7.225-7.225V34.819a7.314,7.314,0,0,0-2.129-5.141L57.216,9.949a7.22,7.22,0,0,0-5.138-2.129Z" transform="translate(0 0)" fill="#c2ea1b"/>
    <path id="Path_30" data-name="Path 30" d="M48.4,31.941H36.174A13.757,13.757,0,0,1,22.43,18.2V2.51h6.563V18.2a7.188,7.188,0,0,0,7.18,7.18H48.4Z" transform="translate(31.063 2.038)" fill="#c2ea1b"/>
  </g>
</svg>
