<svg xmlns="http://www.w3.org/2000/svg" width="84.971" height="95.711" viewBox="0 0 84.971 95.711">
  <g id="layer1" transform="translate(-1)">
    <path id="Path_31" data-name="Path 31" d="M9.944,0V57.427h4.472V4.786H50.194V23.928H68.083v33.5h4.472V19.142L54.666,0H9.944ZM54.666,6.477,66.5,19.142H54.666ZM14.417,62.212V76.569l-.035.626-.114.608-.192.6-.262.561-.323.514-.384.477-.437.411-.489.346-.524.28-.55.2-.576.131-.585.037-.585-.037-.576-.131-.55-.2-.524-.28-.489-.346-.437-.411L6.4,79.476l-.323-.514L5.813,78.4l-.192-.6L5.507,77.2l-.035-.626H1l.035.879.122.879.183.86.262.841.332.8.411.776.463.729.524.682.585.626.638.561.681.5.716.439.76.355.786.28.8.2.821.131.821.037.821-.037.821-.131.8-.2.786-.28.76-.355.716-.439.681-.5.638-.561.585-.626.524-.682.463-.729.411-.776.332-.8.262-.841.183-.86.122-.879.035-.879V62.212Zm15.653,0a7.195,7.195,0,0,0,0,14.357h4.472a2.4,2.4,0,0,1,0,4.786H23.361V86.14h11.18a7.195,7.195,0,0,0,0-14.357H30.069a2.4,2.4,0,0,1,0-4.786H41.25V62.212Zm24.6,0-.821.037-.821.122-.8.206-.786.28-.76.355-.716.43-.681.5-.638.561-.585.626-.524.682-.463.729-.411.766-.332.813-.262.832-.183.869-.122.879-.035.879v4.786l.035.879.122.879.183.86.262.841.332.8.411.776.463.729.524.682.585.626.638.561.681.5.716.439.76.355.786.28.8.2.821.131.821.037.821-.037.821-.131.8-.2.786-.28.76-.355.716-.439.681-.5.638-.561.585-.626.524-.682.463-.729.411-.776.332-.8.262-.841.183-.86.122-.879.035-.879V71.783l-.035-.879-.122-.879-.183-.869-.262-.832-.332-.813-.411-.766-.463-.729-.524-.682-.585-.626-.638-.561-.681-.5-.716-.43-.76-.355-.786-.28-.8-.206-.821-.122Zm15.714,0a2.159,2.159,0,0,0-1.621.677,2.478,2.478,0,0,0-.676,1.715V86.14h4.472V71.793l9.39,13.394a2.154,2.154,0,0,0,2.5.836,2.386,2.386,0,0,0,1.528-2.275V62.212H81.5V76.56l-9.39-13.394a2.194,2.194,0,0,0-1.729-.953ZM54.666,67l.585.037.576.122.55.206.524.28.489.346.437.411.384.467.323.523.262.561.192.589.114.617.035.626v4.786L59.1,77.2l-.114.608-.192.6-.262.561-.323.514-.384.477-.437.411-.489.346-.524.28-.55.2-.576.131-.585.037-.585-.037-.576-.131-.55-.2-.524-.28-.489-.346-.437-.411-.384-.477-.323-.514-.262-.561-.192-.6-.114-.608-.035-.626V71.783l.035-.626.114-.617.192-.589.262-.561.323-.523L51.5,68.4l.437-.411.489-.346.524-.28.55-.206.576-.122ZM9.944,90.926v4.786h62.61V90.926H9.944Z" fill="#efe72f"/>
  </g>
</svg>
