<svg xmlns="http://www.w3.org/2000/svg" width="150.031" height="78.907" viewBox="0 0 150.031 78.907">
  <g id="_x32_56-php" transform="translate(-26.001 -135.034)">
    <g id="Group_27" data-name="Group 27" transform="translate(26.001 135.034)">
      <g id="Group_26" data-name="Group 26" transform="translate(0)">
        <path id="Path_22" data-name="Path 22" d="M101.017,138.972c40.18,0,71.077,16.925,71.077,35.515S141.172,210,101.017,210c-40.18,0-71.077-16.926-71.077-35.515s30.92-35.515,71.077-35.515m0-3.938C59.594,135.034,26,152.686,26,174.487s33.593,39.454,75.016,39.454,75.015-17.652,75.015-39.454S142.439,135.034,101.017,135.034ZM77.152,171.323c-1.852,9.494-8.392,8.509-16.433,8.509l3.212-16.55c8.908,0,14.956-.961,13.221,8.041Zm-28.318,25.27h8.6l2.04-10.5c9.635,0,15.612.7,21.145-4.477,6.118-5.627,7.712-15.636,3.352-20.653-2.274-2.626-5.931-3.915-10.9-3.915H56.5Zm43.532-50.072h8.557l-2.04,10.5c7.384,0,14.229-.539,17.535,2.508,3.47,3.188,1.805,7.267-1.946,26.513H105.8c3.61-18.613,4.29-20.16,2.977-21.567-1.265-1.359-4.149-1.078-11.111-1.078l-4.407,22.645H84.7l7.666-39.524Zm52.019,24.8c-1.876,9.635-8.6,8.509-16.433,8.509l3.212-16.55C140.118,163.282,146.119,162.321,144.385,171.323Zm-28.318,25.27h8.626l2.04-10.5c10.127,0,15.729.586,21.145-4.477,6.118-5.627,7.712-15.636,3.353-20.653-2.275-2.626-5.931-3.915-10.9-3.915H123.755Z" transform="translate(-26.001 -135.034)" fill="#a0ceff"/>
      </g>
    </g>
  </g>
</svg>
