<svg xmlns="http://www.w3.org/2000/svg" width="87.449" height="87.449" viewBox="0 0 87.449 87.449">
  <g id="_x32_3_x2C__Photoshop_x2C__Adobe" transform="translate(-1.207 -0.711)">
    <g id="Group_25" data-name="Group 25" transform="translate(1.207 0.711)">
      <rect id="Rectangle_19" data-name="Rectangle 19" width="87.449" height="87.449" transform="translate(0 0)" fill="#4fc7ec"/>
      <rect id="Rectangle_20" data-name="Rectangle 20" width="79.753" height="79.753" transform="translate(3.847 3.848)" fill="#242238"/>
      <g id="Group_24" data-name="Group 24" transform="translate(21.269 20.583)">
        <g id="Group_23" data-name="Group 23">
          <g id="Group_22" data-name="Group 22">
            <g id="XMLID_239_">
              <g id="Group_20" data-name="Group 20">
                <path id="XMLID_240_" d="M125.388,121.431c0-.3.052-.421.31-.421,1.966-.061,5.848-.12,9.781-.12,10.142,0,14.011,5.9,14.062,12.881,0,9.565-7.129,13.192-14.735,13.192H131.6v13.667c0,.361-.1.482-.362.482H125.75c-.258,0-.362-.121-.362-.421V121.431Zm6.209,19.7a26.153,26.153,0,0,0,3.364.12c4.087,0,8.02-1.165,8.02-7.181,0-4.813-2.639-7.285-7.5-7.285-2.018,0-3.467.06-3.882.121Z" transform="translate(-125.388 -120.889)" fill="#4fc7ec"/>
              </g>
            </g>
            <g id="XMLID_236_" transform="translate(27.821 10.205)">
              <g id="Group_21" data-name="Group 21">
                <path id="XMLID_237_" d="M297.072,186.007c-2.492,0-3.152,1.558-3.152,2.7,0,1.444.66,2.226,4.474,4.031,5.237,2.527,7.474,4.753,7.474,9.084,0,6.017-3.915,9.44-9.509,9.44-2.695,0-6.095-.257-8.23-1.821a.624.624,0,0,1-.305-.6v-5.535c0-.3.2-.421.356-.3a13.388,13.388,0,0,0,8.236,2.55,2.826,2.826,0,0,0,3.152-2.882c0-1.564-.565-2.467-4.226-4.212-5.237-2.527-7.417-4.7-7.417-9.09,0-4.874,3.654-8.9,9.654-8.9,3.1,0,5.287.083,6.712,1.045a.891.891,0,0,1,.305.782v4.933c0,.361-.2.542-.458.361C302.309,186.39,299.716,186.007,297.072,186.007Z" transform="translate(-287.824 -180.471)" fill="#4fc7ec"/>
              </g>
            </g>
          </g>
        </g>
      </g>
    </g>
  </g>
</svg>
