<svg xmlns="http://www.w3.org/2000/svg" width="99.279" height="99.826" viewBox="0 0 99.279 99.826">
  <g id="comp_x5F_267-python" transform="translate(-18.991 -17.681)">
    <g id="Group_34" data-name="Group 34" transform="translate(18.991 17.681)">
      <g id="Group_33" data-name="Group 33">
        <g id="Group_30" data-name="Group 30">
          <path id="Path_39" data-name="Path 39" d="M63.515,72.2h22a11.093,11.093,0,0,0,11-11.187V40.021c0-5.974-5.027-10.445-11-11.454a67.91,67.91,0,0,0-22,.02c-9.312,1.648-11,5.089-11,11.455v4.493H74.537v6.693H44.252c-6.407,0-12.011,3.852-13.762,11.166-2.019,8.385-2.1,13.618,0,22.373,1.566,6.51,5.295,11.166,11.7,11.166h7.561V85.881A13.989,13.989,0,0,1,63.515,72.2Z" transform="translate(-26.86 -25.586)" fill="#347ab4"/>
          <g id="Group_29" data-name="Group 29">
            <path id="Path_40" data-name="Path 40" d="M41.883,90.123H34.323c-6.878,0-11.757-4.535-13.738-12.771C18.46,68.5,18.46,62.824,20.585,54a16.7,16.7,0,0,1,5.888-9.49,15.987,15.987,0,0,1,9.91-3.28h28.19v-2.5H44.644A2.094,2.094,0,0,1,42.55,36.63V32.137c0-2.922.3-6.26,2.509-8.855,1.98-2.324,5.132-3.761,10.222-4.662a65.7,65.7,0,0,1,11.274-.939,70.539,70.539,0,0,1,11.434.914,16.556,16.556,0,0,1,8.877,4.446,12.762,12.762,0,0,1,3.879,9.075V53.109a13.2,13.2,0,0,1-13.1,13.281h-22A11.931,11.931,0,0,0,43.978,77.976V88.029A2.094,2.094,0,0,1,41.883,90.123Zm-5.5-44.705c-5.909,0-10.292,3.574-11.725,9.559-2,8.286-1.995,13.085,0,21.4,1.049,4.361,3.577,9.56,9.665,9.56h5.467V77.975A16.082,16.082,0,0,1,55.645,62.2h22a9.012,9.012,0,0,0,8.907-9.093V32.116c0-5.137-4.656-8.612-9.256-9.389a66.313,66.313,0,0,0-10.745-.857,61.462,61.462,0,0,0-10.542.874c-8.358,1.479-9.273,4.124-9.273,9.393v2.4H66.667a2.094,2.094,0,0,1,2.094,2.094v6.693a2.094,2.094,0,0,1-2.094,2.094Z" transform="translate(-18.991 -17.681)" fill="#275c87"/>
          </g>
        </g>
        <g id="Group_32" data-name="Group 32" transform="translate(27.378 26.887)">
          <path id="Path_41" data-name="Path 41" d="M225.74,167.223c-1.586-6.366-4.594-11.166-11-11.166h-8.261v9.765a14.13,14.13,0,0,1-13.762,13.968h-22a11.227,11.227,0,0,0-11,11.187v20.973c0,5.974,5.192,9.476,11,11.187a37.022,37.022,0,0,0,22,0c5.542-1.607,11-4.841,11-11.187v-4.4H181.735v-6.789h33c6.407,0,8.776-4.471,11-11.166,2.308-6.9,2.2-13.536,0-22.373Z" transform="translate(-157.618 -153.963)" fill="#ffca1d"/>
          <g id="Group_31" data-name="Group 31">
            <path id="Path_42" data-name="Path 42" d="M173.738,219a40.57,40.57,0,0,1-11.519-1.756c-8.066-2.375-12.507-7.061-12.507-13.2V183.071a13.366,13.366,0,0,1,13.1-13.281h22a12.08,12.08,0,0,0,11.668-11.873v-9.765a2.094,2.094,0,0,1,2.094-2.094h8.261a11.315,11.315,0,0,1,8.883,3.909,20.761,20.761,0,0,1,4.151,8.845c2.344,9.4,2.33,16.437-.046,23.544-2.117,6.372-4.865,12.6-12.988,12.6H175.924v2.6h19.887a2.1,2.1,0,0,1,2.094,2.094v4.4c0,4.365-2.171,10.2-12.513,13.2A41.578,41.578,0,0,1,173.738,219Zm-10.931-45.018a9.122,9.122,0,0,0-8.907,9.093v20.973c0,5.552,5.951,8.133,9.5,9.178a35.953,35.953,0,0,0,10.339,1.586,37.448,37.448,0,0,0,10.49-1.589c6.3-1.826,9.489-4.913,9.489-9.175v-2.3H173.83a2.1,2.1,0,0,1-2.094-2.094v-6.789a2.1,2.1,0,0,1,2.094-2.094h33c4.429,0,6.535-2.274,9.014-9.732,2.134-6.383,2.121-12.525-.045-21.206-1.651-6.625-4.417-9.579-8.969-9.579h-6.166v7.671a16.174,16.174,0,0,1-15.857,16.062h-22Z" transform="translate(-149.712 -146.057)" fill="#bf9816"/>
          </g>
        </g>
        <path id="Path_43" data-name="Path 43" d="M172.413,59.218a4.024,4.024,0,1,1,3.974-4.014A4,4,0,0,1,172.413,59.218Z" transform="translate(-137.139 -44.157)" fill="#fff"/>
        <path id="Path_44" data-name="Path 44" d="M299.906,429.7a4.024,4.024,0,1,1,3.974-4.014A4,4,0,0,1,299.906,429.7Z" transform="translate(-237.93 -337.046)" fill="#fff"/>
      </g>
    </g>
  </g>
</svg>
