<svg xmlns="http://www.w3.org/2000/svg" width="86.737" height="105.797" viewBox="0 0 86.737 105.797">
  <g id="iconfinder_react_7423887" transform="translate(-13.1 -2.1)">
    <circle id="Ellipse_1" data-name="Ellipse 1" cx="7.924" cy="7.924" r="7.924" transform="translate(48.544 32.858)" fill="#61dafb"/>
    <path id="Path_38" data-name="Path 38" d="M56.468,69.921c6.22,6.049,12.354,9.628,17.3,9.628a8.561,8.561,0,0,0,4.431-1.108c4.431-2.556,6.049-8.946,4.516-18.063-.256-1.619-.6-3.238-1.022-4.942,1.7-.511,3.238-1.022,4.771-1.534,8.605-3.323,13.377-7.924,13.377-12.951,0-5.112-4.771-9.713-13.377-12.951a39.085,39.085,0,0,0-4.771-1.534c.426-1.7.767-3.323,1.022-4.942,1.448-9.287-.17-15.763-4.6-18.319A8.561,8.561,0,0,0,73.679,2.1c-4.857,0-11.076,3.579-17.3,9.628C50.248,5.679,44.114,2.1,39.172,2.1a8.561,8.561,0,0,0-4.431,1.108c-4.431,2.556-6.049,8.946-4.516,18.063.256,1.619.6,3.238,1.022,4.942-1.7.511-3.238,1.022-4.771,1.534C17.871,31.069,13.1,35.67,13.1,40.7c0,5.112,4.771,9.713,13.377,12.951a39.086,39.086,0,0,0,4.771,1.534c-.426,1.7-.767,3.323-1.022,4.942-1.448,9.117.17,15.592,4.516,18.063a8.561,8.561,0,0,0,4.431,1.108c4.942.17,11.076-3.408,17.3-9.372ZM51.7,58.419c1.534.085,3.153.085,4.771.085s3.238,0,4.771-.085c-1.534,2.045-3.153,3.919-4.771,5.709C54.849,62.338,53.231,60.464,51.7,58.419ZM41.132,49.643c.852,1.448,1.619,2.812,2.556,4.175-2.641-.341-5.112-.767-7.5-1.278.767-2.3,1.619-4.686,2.641-7.072.682,1.363,1.448,2.812,2.3,4.175ZM36.19,29.109c2.386-.511,4.857-.937,7.5-1.278-.852,1.363-1.7,2.726-2.556,4.175s-1.619,2.812-2.3,4.26A56.958,56.958,0,0,1,36.19,29.109Zm4.686,11.673c1.108-2.3,2.3-4.6,3.664-6.9,1.278-2.215,2.726-4.431,4.175-6.646,2.556-.17,5.112-.256,7.753-.256,2.726,0,5.283.085,7.753.256,1.534,2.215,2.9,4.431,4.175,6.646,1.363,2.3,2.556,4.6,3.664,6.9-1.108,2.3-2.3,4.6-3.664,6.9-1.278,2.215-2.726,4.431-4.175,6.646-2.556.17-5.112.256-7.753.256-2.726,0-5.283-.085-7.753-.256-1.534-2.215-2.9-4.431-4.175-6.646-1.363-2.3-2.556-4.6-3.664-6.9Zm33.314-4.6-2.3-4.26c-.852-1.448-1.619-2.812-2.556-4.175,2.641.341,5.112.767,7.5,1.278-.767,2.386-1.619,4.771-2.641,7.157Zm0,9.2c1.022,2.386,1.874,4.771,2.641,7.072-2.386.511-4.857.937-7.5,1.278.852-1.363,1.7-2.726,2.556-4.175.767-1.278,1.534-2.726,2.3-4.175Zm1.96,29.565a4.623,4.623,0,0,1-2.471.6c-4.175,0-9.372-3.408-14.484-8.52a89.206,89.206,0,0,0,7.242-8.946,78.032,78.032,0,0,0,11.417-1.789,44.041,44.041,0,0,1,.937,4.6C79.984,68.132,79.047,73.33,76.15,74.948Zm4.431-44.9c9.543,2.726,15.251,6.9,15.251,10.736,0,3.323-3.919,6.646-10.821,9.287-1.363.511-2.9,1.022-4.431,1.448a89.549,89.549,0,0,0-4.175-10.736,77.17,77.17,0,0,0,4.175-10.736ZM73.764,6.019a4.826,4.826,0,0,1,2.471.6c2.812,1.619,3.834,6.731,2.641,14.058-.256,1.448-.6,2.982-.937,4.6a110.571,110.571,0,0,0-11.417-1.789A78.72,78.72,0,0,0,59.28,14.54C64.392,9.513,69.59,6.019,73.764,6.019ZM61.24,23.145c-1.534-.085-3.153-.085-4.771-.085s-3.238,0-4.771.085c1.534-2.045,3.153-3.919,4.771-5.709C58.087,19.226,59.706,21.185,61.24,23.145ZM36.786,6.616a4.623,4.623,0,0,1,2.471-.6c4.175,0,9.372,3.408,14.484,8.52A89.205,89.205,0,0,0,46.5,23.486a78.032,78.032,0,0,0-11.417,1.789,44.042,44.042,0,0,1-.937-4.6C32.952,13.432,33.89,8.32,36.786,6.616Zm-4.431,44.9C22.813,48.791,17.1,44.616,17.1,40.782c0-3.323,3.919-6.646,10.821-9.287,1.363-.511,2.9-1.022,4.431-1.448a89.55,89.55,0,0,0,4.175,10.736A81.526,81.526,0,0,0,32.356,51.518Zm1.789,9.372c.256-1.448.6-2.982.937-4.6A110.572,110.572,0,0,0,46.5,58.078a78.721,78.721,0,0,0,7.242,8.946c-5.112,5.027-10.31,8.52-14.484,8.52a4.826,4.826,0,0,1-2.471-.6C33.889,73.33,32.952,68.132,34.145,60.89Zm-3.579,35.1a6.948,6.948,0,0,0,.937-7.413,6,6,0,0,0-5.794-3.834c-3.153-.085-6.39,0-9.543,0h-.6v22.068h2.556v-8.35h4a1.289,1.289,0,0,1,1.193.6l5.112,7.924c.085.17.341.426.511.426h3.323c-2.045-3.153-4-6.135-6.049-9.2A6.186,6.186,0,0,0,30.567,95.994Zm-12.44-.17V87.388h.937c1.96,0,4-.085,5.964.085a4.021,4.021,0,0,1,3.919,4.175,4.238,4.238,0,0,1-4.175,4.175c-2.045.085-4.09,0-6.646,0ZM51.1,96.931c-1.363-5.964-6.816-7.5-10.991-5.623-3.238,1.448-4.686,4.26-4.771,7.753a8.261,8.261,0,0,0,2.726,6.816c2.3,2.045,5.112,2.3,8.009,1.789a7.814,7.814,0,0,0,4.175-2.3c-.426-.6-.852-1.193-1.278-1.7-2.386,2.045-5.027,2.726-7.924,1.363-1.874-.937-2.812-3.238-2.982-4.942H51.271V98.976A5.255,5.255,0,0,0,51.1,96.931ZM38.235,98.294c-.256-2.556,2.3-5.283,5.112-5.283,3.238-.085,5.283,1.874,5.368,5.283Zm26.157-7.413a15.184,15.184,0,0,0-3.919-.256,8.1,8.1,0,0,0-5.283,2.641c.426.6.767,1.193,1.278,1.874a2.259,2.259,0,0,1,.511-.426,6.176,6.176,0,0,1,4.942-1.789c1.534.085,2.982.6,3.408,2.13a18.056,18.056,0,0,1,.341,3.749.5.5,0,0,1-.426-.17,7.359,7.359,0,0,0-6.816-1.448,5.073,5.073,0,0,0-3.919,4.686,5.2,5.2,0,0,0,3.323,5.538,7.7,7.7,0,0,0,4.6.256c1.193-.256,1.7-.937,3.408-1.874V106.9h2.386c0-3.408.085-7.583,0-11.5a4.368,4.368,0,0,0-3.834-4.516Zm1.193,10.736a2.316,2.316,0,0,0,0,.767c0,1.789-.426,2.386-2.13,3.067a5.65,5.65,0,0,1-3.749.17,3.351,3.351,0,0,1-2.471-3.153,3.3,3.3,0,0,1,2.3-3.323,5.552,5.552,0,0,1,5.368.937A1.428,1.428,0,0,1,65.585,101.617Zm13.292-8.435A5.056,5.056,0,0,1,84.67,94.8l.256.17c.6-.511,1.108-1.022,1.789-1.619a3.556,3.556,0,0,1-.511-.682c-2.471-2.641-7.327-2.982-10.31-.852C71.72,94.886,71.8,100.85,73.85,104a7.8,7.8,0,0,0,8.094,3.579,7.184,7.184,0,0,0,4.857-2.812c-.6-.511-1.193-1.022-1.789-1.619a1.5,1.5,0,0,0-.341.426,5.22,5.22,0,0,1-8.179-.426,6.736,6.736,0,0,1-1.108-5.368,4.993,4.993,0,0,1,3.493-4.6ZM96.6,104.769a1.055,1.055,0,0,0-.256.17,2.157,2.157,0,0,1-2.13.341c-.767-.341-.852-1.022-.937-1.7V93.863c0-.17,0,.17.085-.682H96.6V90.626H93.191v-4.26H90.635v4.6H88.419c-.17,0-.426.17-.426.341a13.619,13.619,0,0,0,0,1.874H90.72v10.906a3.379,3.379,0,0,0,1.534,3.238,4.936,4.936,0,0,0,4.857-.341c.17-.085.256-.426.256-.511C97.11,105.962,96.854,105.366,96.6,104.769Z" transform="translate(0)" fill="#61dafb"/>
  </g>
</svg>
