<svg xmlns="http://www.w3.org/2000/svg" width="87.449" height="87.449" viewBox="0 0 87.449 87.449">
  <g id="_x33__x2C__XD_x2C__Adobe" transform="translate(-1.207 -0.712)">
    <g id="Group_19" data-name="Group 19" transform="translate(1.207 0.712)">
      <rect id="Rectangle_17" data-name="Rectangle 17" width="87.449" height="87.449" fill="#ff26be"/>
      <rect id="Rectangle_18" data-name="Rectangle 18" width="79.753" height="79.753" transform="translate(3.847 3.848)" fill="#2e001f"/>
      <g id="Group_18" data-name="Group 18" transform="translate(16.41 23.411)">
        <g id="Group_17" data-name="Group 17">
          <path id="Path_21" data-name="Path 21" d="M126,137.4h-6.831l-7.333,15.337L104.408,137.4H97.371l9.959,19.914L97.016,177.7h6.954l7.464-15.627,7.551,15.627h7.527L115.88,157.071Zm18.884,0v10.249h-1.968c-6.717,0-14.838,4.332-14.838,15.4,0,8.554,4.334,14.983,13.565,14.983,6.8,0,10-2.351,10-2.351V137.4Zm-.007,34.741a7.191,7.191,0,0,1-2.614.342c-1.836,0-7.468-.809-7.468-9.739s6.472-9.646,8.027-9.646a3.314,3.314,0,0,1,2.054.436v18.607Z" transform="translate(-97.016 -137.396)" fill="#ffd9f2"/>
        </g>
      </g>
    </g>
  </g>
</svg>
