<svg xmlns="http://www.w3.org/2000/svg" width="101" height="91.182" viewBox="0 0 101 91.182">
  <g id="iconfinder_Artboard_1_2993428" transform="translate(-33.142 -61.187)">
    <path id="Path_32" data-name="Path 32" d="M214.818,81.955v68.227H143V101.7h36.627a2.206,2.206,0,0,0,2.2-2.2V81.461a2.206,2.206,0,0,0-2.2-2.2H143V64h50.273V78.364a3.591,3.591,0,0,0,3.591,3.591Z" transform="translate(-83.177 -0.313)" fill="none" stroke="#57d56f" stroke-linejoin="round" stroke-width="5"/>
    <line id="Line_1" data-name="Line 1" x2="22" y2="18" transform="translate(109.642 63.869)" fill="none" stroke="#57d56f" stroke-linejoin="round" stroke-width="5"/>
    <rect id="Rectangle_21" data-name="Rectangle 21" width="63" height="23" rx="9.8" transform="translate(35.642 78.869)" fill="none" stroke="#57d56f" stroke-linejoin="round" stroke-width="5"/>
    <path id="Path_33" data-name="Path 33" d="M110.079,169.735l-2.316-3.757H107.7l-2.316,3.757H103.4l3.232-5.128-3-4.857h1.966l2.1,3.366h.067l2.1-3.366h1.975l-3.012,4.859,3.236,5.126Z" transform="translate(-52.464 -74.574)" fill="#10f769"/>
    <path id="Path_34" data-name="Path 34" d="M149.049,169.743H147.46V159.76h2.469l2.841,6.271,2.841-6.271h2.469v9.983h-1.589v-7.8l-3.286,6.926h-.9l-3.272-6.926Z" transform="translate(-86.636 -74.581)" fill="#10f769"/>
    <path id="Path_35" data-name="Path 35" d="M205.26,169.743V159.76h1.589v8.385h4.3v1.6Z" transform="translate(-131.464 -74.581)" fill="#10f769"/>
    <path id="Path_36" data-name="Path 36" d="M204.364,274,190,288.364l14.364,14.364" transform="translate(-119.628 -163.182)" fill="none" stroke="#57d56f" stroke-miterlimit="10" stroke-width="5"/>
    <line id="Line_2" data-name="Line 2" y1="29" x2="12" transform="translate(87.642 110.869)" fill="none" stroke="#57d56f" stroke-miterlimit="10" stroke-width="5"/>
    <path id="Path_37" data-name="Path 37" d="M338,274l14.364,14.364L338,302.727" transform="translate(-234.412 -163.182)" fill="none" stroke="#57d56f" stroke-miterlimit="10" stroke-width="5"/>
  </g>
</svg>
