<svg id="PC1" xmlns="http://www.w3.org/2000/svg" width="128.01" height="180.299" viewBox="0 0 128.01 180.299">
  <path id="Path_5" data-name="Path 5" d="M21.931,21.443,93.851,0,75.962,68.112,0,87.2Z" transform="matrix(0.695, 0.719, -0.719, 0.695, 62.762, 0)" fill="#a6f2f8"/>
  <path id="Path_7" data-name="Path 7" d="M828.909,452.5c0,78.544.01,79.747,0,79.428s66.107,40.331,66.107,40.331V492.594Z" transform="translate(-828.909 -391.96)" fill="#54dae5"/>
  <path id="Path_8" data-name="Path 8" d="M890.773,458.85c0,73.548-.009,74.747,0,74.449s-61.9,38.442-61.9,38.442l-.029-79.45Z" transform="translate(-762.763 -391.441)" fill="#379ea7"/>
  <path id="Path_9" data-name="Path 9" d="M828.909,452.5c0,5.49,0,5.574,0,5.552s4.621,2.819,4.621,2.819V455.3Z" transform="translate(-821.531 -376.324)" fill="#e4eff0"/>
  <path id="Path_9-2" data-name="Path 9" d="M828.909,452.5c0,5.49,0,5.574,0,5.552s4.621,2.819,4.621,2.819V455.3Z" transform="translate(-821.531 -366.057)" fill="#e4eff0"/>
  <path id="Path_9-3" data-name="Path 9" d="M828.909,452.5c0,5.49,0,5.574,0,5.552s4.621,2.819,4.621,2.819V455.3Z" transform="translate(-821.531 -355.79)" fill="#e4eff0"/>
  <path id="Path_9-4" data-name="Path 9" d="M828.909,452.5c0,5.49,0,5.574,0,5.552s4.621,2.819,4.621,2.819V455.3Z" transform="translate(-821.531 -345.522)" fill="#e4eff0"/>
  <path id="Path_9-5" data-name="Path 9" d="M828.909,452.5c0,5.49,0,5.574,0,5.552s4.621,2.819,4.621,2.819V455.3Z" transform="translate(-821.531 -335.255)" fill="#e4eff0"/>
  <path id="Path_9-6" data-name="Path 9" d="M828.909,452.5c0,5.49,0,5.574,0,5.552s4.621,2.819,4.621,2.819V455.3Z" transform="translate(-821.531 -324.988)" fill="#e4eff0"/>
  <path id="Path_9-7" data-name="Path 9" d="M828.909,452.5c0,5.49,0,5.574,0,5.552s21.247,13.023,21.247,13.023v-5.568Z" transform="translate(-812.843 -371.19)" fill="#5497e5"/>
  <path id="Path_9-8" data-name="Path 9" d="M828.909,452.5c0,5.49,0,5.574,0,5.552s21.247,13.023,21.247,13.023v-5.568Z" transform="translate(-812.843 -361.141)" fill="#5497e5"/>
  <path id="Path_9-9" data-name="Path 9" d="M828.909,452.5c0,5.49,0,5.574,0,5.552s21.247,13.023,21.247,13.023v-5.568Z" transform="translate(-812.843 -351.459)" fill="#5497e5"/>
  <path id="Path_9-10" data-name="Path 9" d="M828.909,452.5c0,5.49,0,5.574,0,5.552s21.247,13.023,21.247,13.023v-5.568Z" transform="translate(-812.843 -340.974)" fill="#5497e5"/>
  <path id="Path_9-11" data-name="Path 9" d="M828.909,452.5c0,5.49,0,5.574,0,5.552s21.247,13.023,21.247,13.023v-5.568Z" transform="translate(-812.843 -330.707)" fill="#5497e5"/>
  <path id="Path_9-12" data-name="Path 9" d="M828.909,452.5c0,5.49,0,5.574,0,5.552s21.247,13.023,21.247,13.023v-5.568Z" transform="translate(-812.843 -320.439)" fill="#5497e5"/>
  <path id="Path_10" data-name="Path 10" d="M828.909,452.5c0,5.49,0,5.574,0,5.552s14.038,8.218,14.038,8.218V460.7Z" transform="translate(-787.529 -355.79)" fill="#b2fcfc"/>
  <path id="Path_10-2" data-name="Path 10" d="M828.909,452.5c0,5.49,0,5.574,0,5.552s14.038,8.218,14.038,8.218V460.7Z" transform="translate(-787.529 -345.649)" fill="#b2fcfc"/>
  <path id="Path_10-3" data-name="Path 10" d="M828.909,452.5c0,5.49,0,5.574,0,5.552s14.038,8.218,14.038,8.218V460.7Z" transform="translate(-787.529 -335.508)" fill="#b2fcfc"/>
  <path id="Path_10-4" data-name="Path 10" d="M828.909,452.5c0,5.49,0,5.574,0,5.552s14.038,8.218,14.038,8.218V460.7Z" transform="translate(-787.529 -325.367)" fill="#b2fcfc"/>
  <path id="Path_10-5" data-name="Path 10" d="M828.909,452.5c0,5.49,0,5.574,0,5.552s14.038,8.218,14.038,8.218V460.7Z" transform="translate(-787.529 -315.227)" fill="#b2fcfc"/>
  <path id="Path_10-6" data-name="Path 10" d="M828.909,452.5c0,5.49,0,5.574,0,5.552s14.038,8.218,14.038,8.218V460.7Z" transform="translate(-787.529 -305.086)" fill="#b2fcfc"/>
  <path id="Path_11" data-name="Path 11" d="M833.7,458.85c0,5.766,0,5.86,0,5.837s-4.853,3.014-4.853,3.014l0-6.229Z" transform="translate(-710.085 -383.153)" fill="#c9f3f7"/>
  <path id="Path_12" data-name="Path 12" d="M815.962,458.85c0,5.766,0,5.86,0,5.837s-20.017,11.184-20.017,11.184l0-6.229Z" transform="translate(-701.108 -378.488)" fill="#3eedc5"/>
  <ellipse id="Ellipse_1" data-name="Ellipse 1" cx="12.815" cy="18.129" rx="12.815" ry="18.129" transform="translate(94.992 100.896) rotate(22)" fill="#1e2e48"/>
</svg>
