<svg xmlns="http://www.w3.org/2000/svg" width="103.225" height="87.57" viewBox="0 0 103.225 87.57">
  <g id="iconfinder_26_7727555" transform="translate(0 -4.853)">
    <path id="Path_18" data-name="Path 18" d="M37.38,58.451,28.963,33.865a1.783,1.783,0,0,0-1.885-1.192A9.06,9.06,0,0,0,19.318,43.6l.543,3.637L11.6,36.149V18.175A10,10,0,0,0,1.613,8.188H0V49.114L14.324,68.505v8.653H9.105V90.379H41.166V77.158H37.38V58.451ZM3.226,48.053V11.608a6.773,6.773,0,0,1,5.147,6.567V37.218L20.942,54.087l.895,1.032,2.284-1.158L22.484,43a5.774,5.774,0,0,1,.9-4.673,5.852,5.852,0,0,1,2.942-2.2l7.825,22.858V77.158H17.55V67.444ZM34.117,85.485a2.048,2.048,0,1,1,2.048-2.048A2.065,2.065,0,0,1,34.117,85.485Z" transform="translate(0 2.044)" fill="snow"/>
    <path id="Path_19" data-name="Path 19" d="M79.643,49.114V8.188H78.03a10,10,0,0,0-9.986,9.987V36.149L59.781,47.243l.52-3.514a9.066,9.066,0,0,0-7.746-11.058,1.747,1.747,0,0,0-1.871,1.182l-8.42,24.6V77.158H38.477V90.379H70.538V77.158H65.32V68.505ZM45.535,85.485a2.048,2.048,0,1,1,2.048-2.048A2.055,2.055,0,0,1,45.535,85.485Zm-.046-8.327V58.987L53.313,36.13a5.853,5.853,0,0,1,3.821,7l-1.41,9.514-.258,1.344,2.46,1.147L71.269,37.218V18.175a6.773,6.773,0,0,1,5.147-6.567V48.053L62.095,67.444v9.714H45.488Z" transform="translate(23.582 2.044)" fill="snow"/>
    <path id="Path_20" data-name="Path 20" d="M57.694,23.472A18.619,18.619,0,1,0,39.075,42.091,18.619,18.619,0,0,0,57.694,23.472ZM39.075,21.859a6.13,6.13,0,0,1,1.613,12.049v1.967H37.462V33.908A6.137,6.137,0,0,1,32.931,28h3.226a2.919,2.919,0,1,0,2.919-2.919,6.131,6.131,0,0,1-1.613-12.049V11.069h3.226v1.967a6.136,6.136,0,0,1,4.533,5.9H42a2.919,2.919,0,1,0-2.92,2.92Z" transform="translate(12.537)" fill="snow"/>
  </g>
</svg>
