<svg xmlns="http://www.w3.org/2000/svg" width="72.513" height="87.57" viewBox="0 0 72.513 87.57">
  <g id="iconfinder_37_7727577" transform="translate(-7.405 0.005)">
    <path id="Path_16" data-name="Path 16" d="M67.388,57.673,55.963,54.485V47.713a28.7,28.7,0,0,0,3.051-6.4V41.3a7.035,7.035,0,0,0,3.995-3.735c1.754-3.584,1.415-8.537.457-10.192a.857.857,0,0,0-.118-.191,14.4,14.4,0,0,0,2.388-10.616,15.744,15.744,0,0,0-9.2-11.683c-1.076-.493-2.123-1.012-3.14-1.5C46.868.173,40.676-2.851,34.765,4.8,30,3.511,27.217,4.92,25.7,6.4c-3.936,3.858-3.494,12.244-.943,19.741a2.717,2.717,0,0,0-1.238,1.19c-1.106,1.9-1.356,7.251.575,10.739a6.721,6.721,0,0,0,4.26,3.407,28.975,28.975,0,0,0,2.86,5.91v6.909L18.49,57.344C12.166,58.986,7.4,64.417,7.4,70.971V87.565H79.918v-15.2C79.918,65.047,73.093,59.26,67.388,57.673ZM29.915,35.565l-.87-6.307.044-.328c.634-5.007,1.3-10.151,3.774-11.943,1.636,3.106,5.086,4.9,10.245,5.336l2.845.233-2-3.2A31.377,31.377,0,0,0,56.907,21.09a20.976,20.976,0,0,0,1.061,8.359l-.531,5.322a26.788,26.788,0,0,1-6.722,15.158,7.167,7.167,0,0,1-5.351,2.326H42.018A7.233,7.233,0,0,1,36.5,49.738,27.125,27.125,0,0,1,29.915,35.565ZM42.18,84.829H10.353V70.971a11.565,11.565,0,0,1,8.919-10.986l12.8-3.078,10.113,13.2v14.72ZM53.015,55.046,43.654,67.318,34.161,54.923v-3.53c0,.014.015.027.03.041a10.233,10.233,0,0,0,7.828,3.557h3.346a10.151,10.151,0,0,0,7.621-3.324c.015-.014.03-.027.03-.041v3.42Zm12.84,20.713H54.578V73.023H65.855Z" transform="translate(0)" fill="#fff"/>
    <path id="Path_17" data-name="Path 17" d="M29.185,32.734a7.83,7.83,0,0,0,4.965,1.7,9.351,9.351,0,0,0,5.069-1.571l-1.584-2.488c-3.74,2.383-6.415.216-6.527.122Z" transform="translate(10.324 11.038)" fill="#fff"/>
    <circle id="Ellipse_2" data-name="Ellipse 2" cx="1.843" cy="1.843" r="1.843" transform="translate(36.829 30.666)" fill="#fff"/>
    <circle id="Ellipse_3" data-name="Ellipse 3" cx="1.843" cy="1.843" r="1.843" transform="translate(47.973 30.666)" fill="#fff"/>
  </g>
</svg>
