<svg xmlns="http://www.w3.org/2000/svg" width="93.266" height="87.568" viewBox="0 0 93.266 87.568">
  <g id="calendar" transform="translate(0 -1.955)">
    <path id="Path_15" data-name="Path 15" d="M93.251,9.766H78.358V1.955H65.679V9.766H27.586V1.955H14.908V9.766H0V89.523H93.266C93.266,70.345,93.251,34.7,93.251,9.766ZM68.594,4.87h6.849V17.592H68.594Zm-50.771,0h6.849V17.592H17.822ZM90.351,86.608H2.915V27.661H90.351Z" transform="translate(0 0)" fill="#fff"/>
    <rect id="Rectangle_9" data-name="Rectangle 9" width="10.201" height="10.201" transform="translate(25.15 36.76)" fill="#fff"/>
    <rect id="Rectangle_10" data-name="Rectangle 10" width="10.201" height="10.201" transform="translate(41.532 36.76)" fill="#fff"/>
    <rect id="Rectangle_11" data-name="Rectangle 11" width="10.201" height="10.201" transform="translate(57.914 36.76)" fill="#fff"/>
    <rect id="Rectangle_12" data-name="Rectangle 12" width="10.201" height="10.201" transform="translate(74.297 36.76)" fill="#fff"/>
    <rect id="Rectangle_13" data-name="Rectangle 13" width="10.201" height="10.201" transform="translate(8.767 52.031)" fill="#fff"/>
    <rect id="Rectangle_14" data-name="Rectangle 14" width="10.201" height="10.201" transform="translate(25.15 52.031)" fill="#fff"/>
    <rect id="Rectangle_15" data-name="Rectangle 15" width="10.201" height="10.201" transform="translate(41.532 52.031)" fill="#fff"/>
    <rect id="Rectangle_16" data-name="Rectangle 16" width="10.201" height="10.201" transform="translate(57.914 52.031)" fill="#fff"/>
    <rect id="Rectangle_17" data-name="Rectangle 17" width="10.201" height="10.201" transform="translate(74.297 52.031)" fill="#fff"/>
    <rect id="Rectangle_18" data-name="Rectangle 18" width="10.201" height="10.201" transform="translate(8.767 67.301)" fill="#fff"/>
    <rect id="Rectangle_19" data-name="Rectangle 19" width="10.201" height="10.201" transform="translate(25.15 67.301)" fill="#fff"/>
    <rect id="Rectangle_20" data-name="Rectangle 20" width="10.201" height="10.201" transform="translate(41.532 67.301)" fill="#fff"/>
    <rect id="Rectangle_21" data-name="Rectangle 21" width="10.201" height="10.201" transform="translate(57.914 67.301)" fill="#fff"/>
  </g>
</svg>
