<svg xmlns="http://www.w3.org/2000/svg" xmlns:xlink="http://www.w3.org/1999/xlink" width="120" height="38" viewBox="0 0 120 38">
  <defs>
    <linearGradient id="linear-gradient" x1="0.378" y1="0.945" x2="2.591" y2="0.128" gradientUnits="objectBoundingBox">
      <stop offset="0" stop-color="#dfe8ed" stop-opacity="0"/>
      <stop offset="0.296" stop-color="#c3cbcf" stop-opacity="0.251"/>
      <stop offset="0.522" stop-color="#818689" stop-opacity="0.843"/>
      <stop offset="1" stop-color="#707477"/>
    </linearGradient>
  </defs>
  <g id="Logo" transform="translate(-136 -33)">
    <rect id="Rectangle_23" data-name="Rectangle 23" width="101" height="38" transform="translate(136 33)" fill="url(#linear-gradient)"/>
    <text id="Kokon" transform="translate(140 62.381)" fill="#020202" font-size="24" font-family="Tahoma-Bold, Tahoma" font-weight="700"><tspan x="0" y="0">Kokon</tspan></text>
    <g id="Group_8" data-name="Group 8">
      <circle id="Ellipse_5" data-name="Ellipse 5" cx="19" cy="19" r="19" transform="translate(218 33)" fill="#8b979d"/>
      <g id="Path_4" data-name="Path 4" transform="translate(245.316 35.619) rotate(60)" fill="#54dae5">
        <path d="M 3.979710102081299 23.70575523376465 C 2.06099009513855 23.70575523376465 0.5000001192092896 22.12027549743652 0.5000001192092896 20.17145538330078 L 0.5000001192092896 4.034295558929443 C 0.5000001192092896 2.08547568321228 2.06099009513855 0.4999957084655762 3.979710102081299 0.4999957084655762 C 5.898429870605469 0.4999957084655762 7.459420204162598 2.08547568321228 7.459420204162598 4.034295558929443 L 7.459420204162598 20.17145538330078 C 7.459420204162598 22.12027549743652 5.898429870605469 23.70575523376465 3.979710102081299 23.70575523376465 Z" stroke="none"/>
        <path d="M 3.979710102081299 0.9999961853027344 C 2.336689949035645 0.9999961853027344 1 2.361175537109375 1 4.034296035766602 L 1 20.17145538330078 C 1 21.84457588195801 2.336689949035645 23.20575523376465 3.979710102081299 23.20575523376465 C 5.622730255126953 23.20575523376465 6.959420204162598 21.84457588195801 6.959420204162598 20.17145538330078 L 6.959420204162598 4.034296035766602 C 6.959420204162598 2.361175537109375 5.622730255126953 0.9999961853027344 3.979710102081299 0.9999961853027344 M 3.979710102081299 -3.814697265625e-06 C 6.177639961242676 -3.814697265625e-06 7.959420204162598 1.806215286254883 7.959420204162598 4.034296035766602 L 7.959420204162598 20.17145538330078 C 7.959420204162598 22.3995361328125 6.177639961242676 24.20575523376465 3.979710102081299 24.20575523376465 C 1.781780242919922 24.20575523376465 0 22.3995361328125 0 20.17145538330078 L 0 4.034296035766602 C 0 1.806215286254883 1.781780242919922 -3.814697265625e-06 3.979710102081299 -3.814697265625e-06 Z" stroke="none" fill="#707070"/>
      </g>
      <g id="Rectangle_6" data-name="Rectangle 6" transform="translate(246.539 46.973) rotate(60)" fill="#85faae" stroke="#707070" stroke-width="1">
        <rect width="7.959" height="27.03" rx="3.98" stroke="none"/>
        <rect x="0.5" y="0.5" width="6.959" height="26.03" rx="3.48" fill="none"/>
      </g>
    </g>
  </g>
</svg>
