<svg xmlns="http://www.w3.org/2000/svg" xmlns:xlink="http://www.w3.org/1999/xlink" width="99" height="32" viewBox="0 0 99 32">
  <defs>
    <linearGradient id="linear-gradient" x1="0.378" y1="0.945" x2="2.591" y2="0.128" gradientUnits="objectBoundingBox">
      <stop offset="0" stop-color="#dfe8ed" stop-opacity="0"/>
      <stop offset="0.296" stop-color="#c3cbcf" stop-opacity="0.251"/>
      <stop offset="0.522" stop-color="#818689" stop-opacity="0.843"/>
      <stop offset="1" stop-color="#707477"/>
    </linearGradient>
  </defs>
  <g id="Group_20" data-name="Group 20" transform="translate(-136 -33)">
    <rect id="Rectangle_23" data-name="Rectangle 23" width="84" height="32" transform="translate(136 33)" fill="url(#linear-gradient)"/>
    <text id="Kokon" transform="translate(139.323 53.47)" fill="#fffdfd" font-size="16" font-family="Tahoma-Bold, Tahoma" font-weight="700"><tspan x="0" y="0">Kokon</tspan></text>
    <g id="Group_8" data-name="Group 8" transform="translate(203.109 33)">
      <circle id="Ellipse_5" data-name="Ellipse 5" cx="16" cy="16" r="16" transform="translate(-0.109)" fill="#8b979d"/>
      <g id="Path_4" data-name="Path 4" transform="translate(23.698 2.175) rotate(60)" fill="#54dae5">
        <path d="M 3.305895805358887 19.60741996765137 C 1.758725762367249 19.60741996765137 0.5000057816505432 18.32835960388184 0.5000057816505432 16.75617980957031 L 0.4999957978725433 3.351239919662476 C 0.4999957978725433 1.779060006141663 1.758715748786926 0.4999999701976776 3.305895805358887 0.4999999701976776 C 4.853075981140137 0.4999999701976776 6.111795902252197 1.779060006141663 6.111795902252197 3.351239919662476 L 6.111795902252197 16.75617980957031 C 6.111795902252197 18.32835960388184 4.853075981140137 19.60741996765137 3.305895805358887 19.60741996765137 Z" stroke="none"/>
        <path d="M 3.305895805358887 1 C 2.034415721893311 1 0.9999957084655762 2.054759979248047 0.9999957084655762 3.351240158081055 L 1.000005722045898 16.75617980957031 C 1.000005722045898 18.05265998840332 2.034425735473633 19.10741996765137 3.305895805358887 19.10741996765137 C 4.577375888824463 19.10741996765137 5.611795902252197 18.05265998840332 5.611795902252197 16.75617980957031 L 5.611795902252197 3.351240158081055 C 5.611795902252197 2.054759979248047 4.577375888824463 1 3.305895805358887 1 M 3.305895805358887 0 C 5.131695747375488 0 6.611795902252197 1.500400543212891 6.611795902252197 3.351240158081055 L 6.611795902252197 16.75617980957031 C 6.611795902252197 18.60701942443848 5.131695747375488 20.10741996765137 3.305895805358887 20.10741996765137 C 1.480105876922607 20.10741996765137 5.7220458984375e-06 18.60701942443848 5.7220458984375e-06 16.75617980957031 L -4.291534423828125e-06 3.351240158081055 C -4.291534423828125e-06 1.500400543212891 1.480095863342285 0 3.305895805358887 0 Z" stroke="none" fill="#707070"/>
      </g>
      <g id="Rectangle_6" data-name="Rectangle 6" transform="translate(24.714 11.608) rotate(60)" fill="#85faae" stroke="#707070" stroke-width="1">
        <rect width="6.612" height="22.453" rx="3.306" stroke="none"/>
        <rect x="0.5" y="0.5" width="5.612" height="21.453" rx="2.806" fill="none"/>
      </g>
    </g>
  </g>
</svg>
